<svg xmlns="http://www.w3.org/2000/svg" version="1.0" viewBox="0 0 1600 1600"><path d="M1023.5 259.7c-6.6 2.7-14.2 8.1-18.6 13.4-9.9 11.8-21.4 34.6-36.1 71.4-13.3 33-16.9 43.8-21.8 65.7-2.3 10.1-5.9 25.5-8.1 34.3s-6.2 27.2-9 41c-7.6 38.6-9.3 42.1-20.7 45.4-3.7 1.1-12.1 3.1-18.7 4.6-12.1 2.7-30.8 7.5-46.7 12.1-5.1 1.5-10.5 2.4-13 2.2l-4.3-.3.3-4.5c.1-2.5 1.2-7.7 2.3-11.5 5-17.2 19.8-59.7 28.3-81.3 18.8-47.7 25.8-67.1 27.6-75.7 2.4-11.4-.9-25.2-7.4-31.7-8.3-8.2-24.2-5.6-34.3 5.6-5.2 5.8-6.8 8.7-11.9 21.6-4.7 12.1-9.8 22.2-18 36.1-3.6 6-10.8 19.3-15.9 29.4-10 19.5-16.2 30.9-23.9 43.8-2.5 4.3-4.6 8-4.6 8.3 0 .2-2.2 4.1-4.8 8.6-9 15.4-12.9 23.2-22.6 45.1-15.6 35.3-15.2 34.7-22.2 34.7-5.2 0-5.6-2.1-4.5-22.8 2.4-44.7 5.2-112 5.2-125.5.1-8.9-.2-10.5-2.8-15.5-3.6-7.2-8.1-9.7-16.8-9.5-7.5.1-10.3 1.2-15.5 5.9-7.2 6.5-9.7 12.9-14.5 36.9-1.9 9.3-5.9 28.5-9 42.5s-8.5 39.7-12 57c-7.2 34.6-11.4 51.7-13.9 55.5-2.2 3.3-5 4.4-29.4 11.4-11.4 3.3-30.4 9-42.2 12.6s-24.2 7.3-27.5 8.1-7.5 1.9-9.2 2.4c-2.6.6-3.3.5-3.3-.6 0-.8.5-1.4 1.1-1.4s.8-.7.5-1.6c-.8-2 2.1-16.2 9.4-45.9 3.2-13.2 7.9-34.6 10.5-47.5s7.1-33.6 10-46c8.3-34.9 9.1-41.4 5.7-47.9-6.2-12.3-25.7-10.6-32.7 2.9-2.5 4.9-5.5 17.8-9.9 43.5-5.2 29.7-7.2 41.1-9.1 51-4.2 22-5.9 31.2-9.5 51.5-2.3 12.4-5.5 28.3-7.2 35.4-4 16.8-4.8 17.7-22.8 24.9-26.6 10.8-35.6 12.7-38.5 8.3-2-3.1-2-3.3 6.7-36 23-86.3 27.3-107.8 23.3-115.5-5.2-10.1-18.4-11.7-27.5-3.5-7.3 6.6-7.5 7.6-18.1 73.9-7.3 45.6-14.8 80.6-19.6 91.5-4 9-5.5 10.2-21.6 17-40.8 17-74 34.5-104.7 55-21.7 14.5-36.5 28.1-41.5 38-4.5 8.8-2.8 18.6 4.2 25.1 7.4 7 18.7 9.9 38.4 9.9 21.2 0 38.3-2 65.9-8 7.4-1.6 16.2-3.2 19.5-3.5 8.4-1 8.9-.2 7 10.1-.8 4.3-4.7 25.2-8.6 46.4-9 49.1-14.6 73.8-29.9 131.5-9.7 36.2-10.3 44.6-3.9 50.8 7.7 7.4 19.1-2.2 24.2-20.3.8-3 2.5-10.2 3.7-16s4.2-17.9 6.7-27c6.9-25.5 12.6-49.3 21.3-88 10.3-46.2 18.8-81.2 21.1-87.5 1.2-3.3 2.9-5.6 4.8-6.8 3.3-1.9 35.7-7.7 44.2-7.8 7.9-.1 9.9.7 9.9 3.9 0 5.8-6.9 36.9-17.5 79.3-7.1 28.2-17.8 81.2-21.9 108.5-.8 5.5-2.5 16-3.6 23.4-7.8 50.7-11 88-7.6 88 2.6 0 4.9-7.1 14.5-43.5 2.1-8.3 5.8-21.3 8-29 4.7-15.8 14.9-54.7 19.3-73.5 1.6-6.9 6-25.1 9.8-40.5s9.2-37.9 12-50c10.9-46.9 17-69.5 19.3-71.3.7-.6 8.8-2.5 18.1-4.2l16.8-3.3 4.5 4.7c4 4.1 5 4.6 8.9 4.6 5.8 0 8.9-1.3 15.1-6.4 4-3.4 6.8-4.7 12-5.9 8.4-2 36.9-5.1 39-4.3 1.9.8 1.7 2.3-2.7 21.6-3.8 17.1-6.2 23.9-9.4 26.9-1.8 1.7-9.4 4-32.7 9.7-41.9 10.3-49.2 12.8-55.4 19.4-2.4 2.5-3 4-3 7.5 0 6.1 2.7 8.7 9.7 9.3 6.4.5 14.1-1.4 50.1-12.5 29.4-9 28.5-9.1 26.2 2.7-.7 4.1-2.8 13.6-4.6 21-3.8 16.6-6.2 27.6-9.5 44.5-19.8 100.8-26.3 126.9-39.9 160.6-5.1 12.7-7.5 22.6-7.5 31.3 0 9.5 2.1 13.6 8.7 17 9.8 5 21-1.9 25.6-15.9.9-2.8 3-14.9 4.7-27 3-22.7 6-38.4 12.8-68.5 2.2-9.6 5.9-26.3 8.2-37s5.8-26.3 7.7-34.5c1.9-8.3 6.1-27.6 9.3-43 7.1-33.5 10.7-49.8 12.2-54.5 2.5-8.3 8.4-11 36.8-16.9 8-1.7 22.6-4.9 32.5-7.1 9.9-2.3 21.8-5 26.5-6 4.7-1.1 10.1-2.4 12-3 1.9-.5 5-1 6.7-1 2.9 0 3.3.3 3.3 2.6 0 3.5-5.1 29.3-11.1 55.9-4.9 21.7-8.5 38.9-21.3 102.5-3.6 17.9-8.8 43.5-11.5 57s-6.8 34.6-9 47-5.8 31.9-8 43.5c-2.2 11.5-4.9 26.8-6.1 34-7.3 44.8-15.4 81.3-25.5 114.5-7.3 24.1-7.8 33-2.4 44.4 4.1 8.9 14.7 15.6 24.4 15.6 6.8 0 14-2.7 17.1-6.3 4.1-4.8 7.1-12.5 8.4-21.3 1.2-8.2.9-10.7-3.5-35.9-3.9-22.4-.3-61.3 11.6-126 2.2-12.1 6-33.5 8.4-47.5 15.1-88 19.4-110.8 26.4-140 1.2-4.7 3.9-18.4 6.2-30.5 2.2-12.1 6.2-31.2 8.9-42.5 2.6-11.3 6-26.1 7.4-33 4-19.2 9.3-39.9 10.7-41.7.7-.8 2.4-1.9 3.7-2.4 2.6-1 20.1-4.5 39.7-7.9 6.6-1.1 21.5-4 33-6.5 36.8-7.7 62.5-12.6 96.5-18.6 6.3-1.1 17.4-3.1 24.5-4.4 15.1-2.9 45-7.4 68.5-10.5 9.1-1.1 23.7-3.2 32.5-4.5 17.4-2.6 31.3-4.3 61.5-7.5 34.8-3.7 54.2-7.2 52-9.4-1.4-1.4-66.5-1.2-90 .4-37.9 2.6-122.6 12-161.5 18-36.1 5.5-56.1 9.1-102.4 18.2-26 5.1-37 6.5-41.4 5.4-1.8-.4-3.1-2-4.7-5.8-2.7-6.2-2.4-10.9 1.4-30.8 1.3-6.9 3-15.8 3.6-19.8 1.2-7.1 1.4-7.4 5.9-10.7 2.5-1.9 7.2-4.4 10.5-5.5 7.1-2.7 7.6-2.3 10.5 7.4 4.9 16 10.6 21.8 22.3 22.4 10.5.6 19.2-3 27.8-11.7 6.9-7 22.9-27.6 34.8-45 7.7-11.2 10.6-14.1 12.5-12.2.6.6 1.4 6 1.8 12 .8 12.6 2.8 18 8.1 22.7 7.6 6.7 17.3 7 29.9 1.1 10.2-4.8 19.2-12.7 30.3-26.5 10.4-13 16.9-19.7 18.4-18.8.5.3 1.2 4.3 1.6 8.8 2.5 30.1 27.6 38.7 56.4 19.4 11.9-8 19.1-16 38.8-42.9 6-8.4 11.8-15.3 12.8-15.5 2.1-.4 2 1.9-.4 15.8-1.1 6.5-1.1 8.2.3 13 3.1 10.6 11.5 17.3 26.4 21 4.3 1.1 19.1 3.1 32.9 4.5 61 6.2 99.6 12.3 118.6 18.5 20.3 6.7 38.9 22.9 44.1 38.4 2.2 6.5 2.2 20.5.1 27.7-5.2 17.5-21.2 38.2-41.9 54.4-10.4 8.1-49.2 33.9-66.5 44.2-21.5 12.9-60.4 31.9-108 52.8-75.9 33.3-139.9 63.6-167.5 79.3-29.3 16.7-65.3 43.4-86.5 64.2-23.9 23.4-42.1 55.5-46.1 81.2-1.8 11.6-.7 27.8 2.6 36.8 10.4 28.4 32.2 41.2 64.4 37.9 11.8-1.1 18-3.1 36.8-11.7 7.2-3.4 15.5-6.8 18.4-7.6 8-2.4 17.1-2 25.4 1 19 7 25.1 7.7 33.1 4 19.2-9 29.2-33.9 22.3-56.1-5.1-16.6-18.8-22.3-38.6-16-12.2 3.9-18.3 7.8-44 28.8-17.9 14.6-32.6 20.5-53.9 21.4-11.4.5-12.5.4-17.5-1.9-6.6-3-13.8-10.1-16.9-16.5-3.3-6.8-3.3-19.9-.1-29.8 2.6-8 11.3-24.9 17.7-34.7 11.1-16.8 45.7-45.6 78.9-65.9 40.7-24.8 83.3-45.1 181-86.4 86.5-36.5 153.8-70.2 187.3-93.8 21.5-15.1 38.7-31.5 49.3-46.7 21.8-31.4 28.3-58.3 20.4-85.3-5.4-18.6-16.5-31.6-36.6-42.4-22.6-12.2-35.1-15.9-69.4-20.2-32.6-4.2-32.7-4.2-80.5-8.6-9.1-.9-23.6-2-32.2-2.4-16.9-.9-20-1.9-24.1-7.3-2.8-3.7-3.3-11.3-1.2-18.3 1.3-4.8 2.8-7 7.8-12 10.1-10 35.4-29.1 44.2-33.5 16-7.8 36.3-11.8 45.1-9 2.1.7 7.1 3.2 10.9 5.6 9 5.5 14.4 7.4 21.2 7.4 15 0 25-12.4 22.2-27.5-1.3-7.2-6.3-16.7-11.4-21.8-2.3-2.4-7.6-6.1-11.7-8.3-7.1-3.8-7.6-3.9-17.3-3.9-8.9 0-10.9.4-18 3.3-9.5 3.8-20.4 10.5-43.6 26.7-22.6 15.7-43 33.4-84.4 73.1-20.1 19.3-26.2 24.5-36.2 31.1-14.8 9.7-22.1 11.2-28.9 5.7-2.1-1.6-4.7-4.8-5.8-7-4-7.6-2-26.1 5-45.6 2.5-6.9 5.9-13.2 20.2-37.1 9.5-15.9 10.9-23.7 5.7-32.4-7.4-12.5-33.2-1.6-40.3 17.2-1.2 3.1-2.9 9.8-3.7 14.8-.9 5.1-2.1 11.9-2.6 15.2-3.2 18.6-8.8 28.2-41.2 71.2-13.8 18.4-23.4 23.8-32.4 18.3-10.8-6.6-11.1-35.1-.6-61.5 7-17.6 32.2-69.9 37.1-76.9 3.8-5.5 6.8-7.4 14.2-9 14.8-3.1 89.7-20.6 139.5-32.6 7.2-1.7 28.1-6.4 46.5-10.5 55.9-12.4 85.6-20.3 146.5-38.9l5-1.6-8 .4c-4.6.2-10.7 1.3-14.4 2.6-4.9 1.6-6.6 1.8-7.2.9-.5-.9-2.2-1-7.1-.1-21.3 3.7-36.9 6.8-65.3 13.2-17.6 3.9-41.2 9.2-52.5 11.6-44.2 9.6-49.3 10.8-107 24.5-23.2 5.5-47.3 11.9-63.9 16.8-5.7 1.7-11.9 3.1-13.7 3.1-6.1 0-6.3.5 24.4-62 22.7-46.3 45.7-111.5 50.2-142.9 1.5-10.1.8-28-1.4-34.7-2-6.3-8.6-14-14.1-16.5-5-2.3-14.5-2.4-20-.2m16.9 8.5c3.2 1.4 5.3 4.5 6.1 9 .9 4.7-.6 5.5-5.1 2.7-3-1.8-4.4-2.1-9.1-1.5-5 .6-5.5.5-4.3-.9.8-.9 3.1-2.5 5.1-3.6 4.2-2.1 5.9-4.1 4.1-4.7-1.4-.4-1.6-2.2-.2-2.2.5 0 2 .5 3.4 1.2m-23.5 77.9c2.6 7.4 1.2 17.5-6.4 48-6.5 26.1-16.3 55.2-28.1 82.9-2.9 6.9-7.1 17-9.4 22.5-6.8 16.1-8.7 19.3-13 22-3.7 2.3-4 2.9-4 7.1 0 4.8-1.1 10.1-4 19.9-.9 3.3-2.8 9.5-4 13.8-2.4 7.8-4.9 11.5-7.1 10.2-1.5-1-.6-8.5 2.6-21.1 4.9-19.1 6.8-24.9 8.6-26.5 1.3-1.2 1.7-3.1 1.7-7 0-6.2 17.9-70.1 28.1-99.9 20.1-59.1 25-71.7 28.8-73.9 3.2-1.8 5.1-1.2 6.2 2m-145 6c1.7 1.6 2.1 3 1.9 6.2l-.3 4.2-5.5-.3c-8.3-.6-9.1-1.5-4.2-4.6 4-2.5 4.6-3.5 4.3-6.4-.3-1.8 1.2-1.5 3.8.9m-161.7 65.3c1.5 2.1.9 8.5-.8 9.4-1.6.9-5.5.1-9.4-1.8-2.2-1.1-1.8-3.3.8-4.6 1.3-.6 3.1-2.1 4-3.2 1.6-2 4-1.9 5.4.2m-156.4 34.2c.2 2.4-.3 4.7-1.3 5.9-1.4 1.9-1.6 1.9-2.9.2-.7-.9-2.3-1.7-3.5-1.7-2.8 0-2.3-2.1.6-3.5 1.2-.5 2.7-2 3.2-3.3 1.6-3.4 3.6-2.2 3.9 2.4m252.8 37.9c.8 2-.9 11.1-6.5 35-2.7 11-5.3 22.5-6 25.5-1.8 8.6-4.1 11.6-10.2 13.4-5.8 1.8-22.7 4.2-23.5 3.4-.2-.3-.2-1.3.2-2.2.5-1.3 1-1.4 2-.5 2.4 2 3.9.5 3.6-3.8-.3-3.4 1.4-7.5 12.2-28.9 14.6-28.9 20.1-39.2 22.3-41.7 2-2.1 5.2-2.2 5.9-.2m-352.9 25.1c.3.9-.4 2.5-1.8 4-2 2-3.1 2.3-5.7 1.8-3.5-.7-4.2-2.1-1.4-3.1.9-.3 2.5-1.4 3.5-2.5 2.2-2.2 4.6-2.3 5.4-.2m235.4 7.4c.8 9.6.5 61.2-.4 63.1-1.1 2.2-5.3 4.4-12.6 6.3-4.5 1.3-6.6 1.5-7.4.7s-.3-4.8 1.7-13.8c1.5-7.1 4.5-21 6.6-31 6.2-28.9 7.3-32.6 9.9-32.1 1.2.2 1.7 1.9 2.2 6.8m564 9c6.5 3.5 11.6 7.6 10.8 8.4-.4.4-4.2-.3-8.5-1.4-4.8-1.3-9.6-2-12.2-1.7-5.6.6-6.4-.9-1.2-2.3 4.3-1.2 4.6-3.5.4-2.7-3 .5-4.1-.8-1.7-2.2 3.1-1.8 6.7-1.2 12.4 1.9m-203.4 9.6c.6 1.7-2.1 8.4-3.6 8.4-2.6 0-7.1-1.4-7.1-2.2 0-1.6 6.5-7.7 8.3-7.7 1-.1 2 .6 2.4 1.5m-135.3 8c2 1.9 2 3.9.1 18.9-.8 6.6-2.2 19.2-3 28-2.4 24.8-3.3 27.1-21.8 55.5-20.4 31.1-31.6 44.7-41.9 50.2-6.4 3.5-13.9 1.4-18.2-4.8-3.8-5.6-3.4-6.7 2.9-9.3 13.4-5.6 31.1-20.4 42.7-35.7 20.3-26.9 25.2-54.3 11.5-64.7-10.3-7.7-23.9-6.1-40.2 4.8-23.3 15.5-37.9 42.4-42 77.1-.7 6.1-1.8 12.1-2.5 13.3-1.2 2.4-10.5 8.7-13.6 9.3-2.8.4-2.9-3-.5-14.8 3.6-17.6 21.4-78.8 28.3-97.1 3.9-10.4.5-9 52.9-22.2 45-11.3 42.9-10.9 45.3-8.5m-132.6 40.6c.2 1.5-1.9 11.4-4.7 22-5.8 21.9-8.6 34.4-13.6 60.1-3.9 20-5.4 25.6-8.3 31.3-2.8 5.5-4.6 6.8-14.2 9.9-11.5 3.7-14.4 7.1-9.9 11.6 2 2 2.9 2.1 11.5 1.6 10.8-.6 10.8-.7 7.8 8.8-.8 2.7-3.7 14.6-6.5 26.4-2.7 11.8-5.9 22.9-7 24.7-2.4 4-6.3 5.5-22.4 8.8-16.7 3.5-39.5 8.8-62.7 14.6-24.2 6.1-25.3 6.2-26.8 1.5-1.3-3.9-.3-14.9 2.6-28.3 2.1-9.5 3.4-10.4 17.1-12.6 5.9-1 23.2-4.2 38.3-7.1 33.4-6.6 37-7.5 37-10.2 0-1.6 2.4-1.6-40.4.7-19.7 1.1-36.9 1.2-40.4.2-3.2-.9-2.3-2.8 1.1-2.4l2.7.3-1.7-3.5c-1.6-3.4-1.6-4.2.1-14.9.9-6.1 3.9-25.6 6.6-43.2 7.6-49.7 7.8-51.5 9.5-60 .8-4.3 2.1-8.5 2.8-9.2 1.5-1.6 19.9-8.3 22.6-8.3s3 2.6 1.5 12.1c-.8 4.6-3.4 20.8-5.9 36-2.5 15.1-4.5 29.4-4.5 31.7 0 8.4 4.1 14.2 10 14.2 3.9 0 9.6-3.2 13.2-7.3 3.2-3.8 8.4-14.8 12.8-27.2 8.2-23.4 11.7-30.6 31.3-64.6 3.7-6.3 7.8-12.6 9.1-13.8 1.8-1.7 5.5-2.9 13.8-4.6 14.6-3 17.2-2.9 17.6.7m82 23.8c3.5 3.3 3.3 11-.5 18.9-3 6.2-27.4 31.7-33.1 34.6-7 3.5-7.8 0-3.1-13.8 5.4-16.2 12-28.7 18.2-34.4 7.8-7 14.5-9 18.5-5.3M632 631.7c0 2-1.6 11.8-3.6 21.7-1.9 9.9-5.7 32.1-8.5 49.3-5.2 33.1-7.3 44.4-8.8 47.1-1.8 3.3-6.6 7-10.6 8.2-2.2.6-12.2 1.4-22.2 1.7-18.3.6-18.3.6-18.3-1.6 0-2.4 1.4-7.6 9.5-36.1 3-10.7 6.2-22.8 7-26.9 1.5-6.8 1.4-7.6-.2-10.9-2.2-4.5-7.5-8.2-11.7-8.2-4.1 0-9.8 3.9-13.6 9.4-4.4 6.5-5.1 8.9-6.1 22.1-1.7 23.2-6.9 46.3-11.1 50.1-3 2.8-10.2 4.9-21.6 6.5-16.8 2.3-18.4-.9-13.1-26.6 5.4-26.7 13.9-63.5 15.2-66.7.8-2 2.7-4.4 4.1-5.4 3.2-2 108.2-37.3 111.4-37.4 1.9 0 2.2.5 2.2 3.7m511.3 21.4c3 1.2 9.7 2.2 18.5 2.9 28.8 2.2 59.4 5.4 94.4 9.9 12.9 1.7 31.8 5 41.3 7.3 5 1.1 9.9 2.2 11 2.4 1.1.1 2.1.3 2.3.4.1.2.6.3 1.1.4.5 0 1.3.4 1.7.8.4.5 1.5.8 2.4.8 2.4 0 12.5 4.7 14 6.5.6.8 3.3 2.6 5.8 4.1 5.6 3.3 14.2 12.2 14.2 14.7 0 2.1-.7 1.8-6.5-2.9-12.9-10.2-31.1-20-44.9-24-21.1-6.1-88.1-14.8-133.1-17.4-19.8-1.1-25.5-2-31.7-4.7-9.3-4-.6-5.1 9.5-1.2M1023.9 664c2.4 1.6 5.9 3.2 7.8 3.6 5.6 1.1 13.6-.2 19.4-3.1 5.1-2.5 5.3-2.5 2.7-.3-7.9 6.7-9 7.2-16.6 8-6.6.7-8 .6-11.9-1.3s-7.3-6-7.3-8.9c0-1.6 1.2-1.2 5.9 2m-91.1 13.5c2.6 1.8 5 2.5 8.4 2.5 5.3 0 6.3 1.5 2.1 3.1-4.5 1.7-9.4.4-12.5-3.3-4.5-5.3-3.7-6.2 2-2.3m-451 4c.3 2.3-13.8 71.9-16.3 80.1-.8 2.8-2.3 5.8-3.4 6.8-1 1-5.4 2.3-9.7 3.1-13 2.2-38.4 5.5-43.1 5.5-4.2 0-4.3 0-4.3-3.5 0-6.5 12.8-63 15.7-69.1 2.1-4.5 4.7-6 22.8-13 18.8-7.3 33.8-12.4 36-12.1 1.1.1 2.1 1.1 2.3 2.2m351.8 27.1c1 1.4 2.3 2.3 3 2 .8-.4 2.1-.9 2.9-1.2 2-.8 2 2-.1 4-2.4 2.4-4.3 1.9-8-2-3.9-4.1-4.8-8.2-1.4-6.4 1.1.6 2.7 2.2 3.6 3.6m-451.8 14c.7 9.9-4.9 41.8-8.6 49.1-3.6 6.9-6.1 7.8-26.7 9.8-8.4.8-20.7 2.1-27.6 2.9-6.8.9-16.4 1.7-21.2 1.8-8.3.3-9 .1-10.8-2.1-2.8-3.4-2.5-9.2.6-12.9 2.7-3.3 22.4-16.6 46-31.2 19.9-12.4 43.1-23.5 47-22.6.6.2 1.2 2.5 1.3 5.2m728.2 20.5c-2.5.4-15.3 1.7-28.5 2.9-13.2 1.1-29.2 2.7-35.5 3.5-24.9 3.2-62.9 6.9-63.6 6.2-.5-.4 7.4-1.6 33.1-4.7 8.8-1.1 17.1-2.2 18.5-2.5s13.3-1.4 26.5-2.6c13.2-1.1 27.4-2.4 31.5-2.8s10.9-.7 15-.8c6.8 0 7.1 0 3 .8m-118.3 400.1c1.9 2.4 2.4 8.3.9 10.3-1.3 1.8-1.7 1.9-4.8.6-1.8-.7-5-1.6-7-1.8-2.1-.3-3.8-.9-3.8-1.3 0-1.3 2.7-3.1 5.7-3.9 1.5-.4 3.2-1.7 3.8-2.9 1.1-2.4 3.7-2.9 5.2-1M846 1183.8c0 .7.4 1.1.9.8.8-.5 11.1 7 11.1 8.1 0 1.6-9.4-.8-12.5-3.1-4.8-3.7-7.3-7.5-5.6-8.5 1.6-1 6.1 1 6.1 2.7"/><path d="M1066.1 420.7c-6.7 2.4-15.3 11.3-18.1 18.8-2.8 7.4-3.6 16.6-2 22.4.6 2.5 2.8 6.1 5 8.4 3.5 3.8 4.2 4.1 9.1 4.1 4.1 0 6.6-.7 10.2-2.8 8.6-5.1 17.5-17.5 20.2-28.4 1.5-5.6 1.5-6.8.1-11.5-3.2-11-12.6-15.2-24.5-11m14.3 7.2c4.1 4.5-.7 11.3-6.9 9.7l-2.8-.7 2.8-2.9c1.5-1.6 2.5-3.5 2.2-4.3-.5-1.4 1-3.7 2.3-3.7.4 0 1.5.9 2.4 1.9M579.8 532c-6.6 2-12.3 7.1-16 14.5-5.1 9.9-1.9 22.4 7.2 28.8 3.1 2.2 11.1 2.2 15.6.1 11.8-5.6 19.2-27.8 12.5-37.3-4.1-5.7-12.2-8.3-19.3-6.1"/></svg>